<svg xmlns="http://www.w3.org/2000/svg" width="1220" height="470" viewBox="0 0 1220 470" role="img" aria-labelledby="title desc">
<title id="title">CAE hyperparameter search evidence</title>
<desc id="desc">Objective: capped-gallery validation mAP@10; data read from the saved Optuna SQLite artifact</desc>
<style>
text{font-family:Inter,Segoe UI,Arial,sans-serif;fill:#183153}
.title{font-size:25px;font-weight:700}.subtitle{font-size:15px;fill:#667085}
.panel{font-size:17px;font-weight:700}.axis{font-size:13px;fill:#667085}
.note{font-size:13px;fill:#475467}.grid{stroke:#d7dee8;stroke-width:1}
</style>
<rect width="100%" height="100%" rx="18" fill="#ffffff" stroke="#d7dee8"/>
<text class="title" x="34" y="38">CAE hyperparameter search evidence</text>
<text class="subtitle" x="34" y="61">Objective: capped-gallery validation mAP@10; data read from the saved Optuna SQLite artifact</text>
<text class="panel" x="70" y="104">Optimization history</text>
<line class="grid" x1="70" y1="365.0" x2="540" y2="365.0"/>
<line class="grid" x1="70" y1="303.8" x2="540" y2="303.8"/>
<line class="grid" x1="70" y1="242.5" x2="540" y2="242.5"/>
<line class="grid" x1="70" y1="181.2" x2="540" y2="181.2"/>
<line class="grid" x1="70" y1="120.0" x2="540" y2="120.0"/>
<line x1="70" y1="365" x2="540" y2="365" stroke="#183153"/>
<line x1="70" y1="120" x2="70" y2="365" stroke="#183153"/>
<text class="axis" x="305.0" y="399" text-anchor="middle">Trial number</text>
<text class="axis" transform="translate(28,242.5) rotate(-90)" text-anchor="middle">Validation mAP@10</text>
<line x1="70.0" y1="365" x2="70.0" y2="370" stroke="#183153"/>
<text class="axis" x="70.0" y="382" text-anchor="middle">0</text>
<line x1="305.0" y1="365" x2="305.0" y2="370" stroke="#183153"/>
<text class="axis" x="305.0" y="382" text-anchor="middle">14</text>
<line x1="540.0" y1="365" x2="540.0" y2="370" stroke="#183153"/>
<text class="axis" x="540.0" y="382" text-anchor="middle">28</text>
<text class="axis" x="63" y="369.0" text-anchor="end">0.096</text>
<text class="axis" x="63" y="246.5" text-anchor="end">0.124</text>
<text class="axis" x="63" y="124.0" text-anchor="end">0.152</text>
<polyline points="221.1,141.6 237.9,141.6 254.6,141.6 271.4,141.6 288.2,141.6 372.1,141.6 405.7,141.6 422.5,141.6 439.3,141.6" fill="none" stroke="#e07a3f" stroke-width="2.5"/>
<circle cx="221.1" cy="141.6" r="4" fill="#128a8a" opacity="0.82"/>
<circle cx="237.9" cy="174.0" r="4" fill="#128a8a" opacity="0.82"/>
<circle cx="254.6" cy="186.6" r="4" fill="#128a8a" opacity="0.82"/>
<circle cx="271.4" cy="218.5" r="4" fill="#128a8a" opacity="0.82"/>
<circle cx="288.2" cy="163.1" r="4" fill="#128a8a" opacity="0.82"/>
<circle cx="372.1" cy="152.0" r="4" fill="#128a8a" opacity="0.82"/>
<circle cx="405.7" cy="146.9" r="4" fill="#128a8a" opacity="0.82"/>
<circle cx="422.5" cy="150.2" r="4" fill="#128a8a" opacity="0.82"/>
<circle cx="439.3" cy="141.6" r="4" fill="#128a8a" opacity="0.82"/>
<path d="M 301.0 339.4 L 309.0 347.4 M 309.0 339.4 L 301.0 347.4" stroke="#c94b50" stroke-width="2"/>
<path d="M 317.8 265.4 L 325.8 273.4 M 325.8 265.4 L 317.8 273.4" stroke="#c94b50" stroke-width="2"/>
<path d="M 334.6 271.3 L 342.6 279.3 M 342.6 271.3 L 334.6 279.3" stroke="#c94b50" stroke-width="2"/>
<path d="M 351.4 224.3 L 359.4 232.3 M 359.4 224.3 L 351.4 232.3" stroke="#c94b50" stroke-width="2"/>
<path d="M 384.9 272.4 L 392.9 280.4 M 392.9 272.4 L 384.9 280.4" stroke="#c94b50" stroke-width="2"/>
<path d="M 452.1 179.2 L 460.1 187.2 M 460.1 179.2 L 452.1 187.2" stroke="#c94b50" stroke-width="2"/>
<path d="M 468.9 229.3 L 476.9 237.3 M 476.9 229.3 L 468.9 237.3" stroke="#c94b50" stroke-width="2"/>
<path d="M 485.6 177.2 L 493.6 185.2 M 493.6 177.2 L 485.6 185.2" stroke="#c94b50" stroke-width="2"/>
<path d="M 502.4 222.0 L 510.4 230.0 M 510.4 222.0 L 502.4 230.0" stroke="#c94b50" stroke-width="2"/>
<path d="M 519.2 211.0 L 527.2 219.0 M 527.2 211.0 L 519.2 219.0" stroke="#c94b50" stroke-width="2"/>
<path d="M 536.0 176.7 L 544.0 184.7 M 544.0 176.7 L 536.0 184.7" stroke="#c94b50" stroke-width="2"/>
<circle cx="221.1" cy="141.6" r="8" fill="none" stroke="#e07a3f" stroke-width="3"/>
<text class="note" font-weight="700" x="231.1" y="133.6">best: trial 9</text>
<text class="panel" x="670" y="104">Learning-rate × regularisation interaction</text>
<line class="grid" x1="670" y1="365.0" x2="1140" y2="365.0"/>
<line class="grid" x1="670" y1="303.8" x2="1140" y2="303.8"/>
<line class="grid" x1="670" y1="242.5" x2="1140" y2="242.5"/>
<line class="grid" x1="670" y1="181.2" x2="1140" y2="181.2"/>
<line class="grid" x1="670" y1="120.0" x2="1140" y2="120.0"/>
<line x1="670" y1="365" x2="1140" y2="365" stroke="#183153"/>
<line x1="670" y1="120" x2="670" y2="365" stroke="#183153"/>
<text class="axis" x="905.0" y="399" text-anchor="middle">learning rate</text>
<text class="axis" transform="translate(628,242.5) rotate(-90)" text-anchor="middle">weight decay</text>
<text class="axis" x="670.0" y="382" text-anchor="middle">1.4e-05</text>
<text class="axis" x="1140.0" y="382" text-anchor="middle">6.5e-04</text>
<text class="axis" x="663" y="369.0" text-anchor="end">2.9e-06</text>
<text class="axis" x="663" y="124.0" text-anchor="end">7.1e-04</text>
<circle cx="891.2" cy="128.0" r="8" fill="rgb(18, 138, 138)" stroke="#ffffff" stroke-width="1.5"/>
<circle cx="1132.0" cy="229.4" r="5" fill="rgb(82, 162, 169)" stroke="#ffffff" stroke-width="1.5"/>
<circle cx="744.0" cy="357.0" r="5" fill="rgb(108, 172, 181)" stroke="#ffffff" stroke-width="1.5"/>
<circle cx="678.0" cy="152.4" r="5" fill="rgb(171, 196, 211)" stroke="#ffffff" stroke-width="1.5"/>
<circle cx="1043.8" cy="197.9" r="5" fill="rgb(61, 154, 158)" stroke="#ffffff" stroke-width="1.5"/>
<circle cx="929.9" cy="318.0" r="5" fill="rgb(39, 146, 148)" stroke="#ffffff" stroke-width="1.5"/>
<circle cx="908.3" cy="301.8" r="5" fill="rgb(29, 142, 143)" stroke="#ffffff" stroke-width="1.5"/>
<circle cx="957.0" cy="270.2" r="5" fill="rgb(35, 144, 146)" stroke="#ffffff" stroke-width="1.5"/>
<circle cx="916.8" cy="173.0" r="5" fill="rgb(18, 138, 138)" stroke="#ffffff" stroke-width="1.5"/>
<text class="note" x="670" y="417">Darker points indicate higher validation mAP@10; axes use log spacing.</text>
</svg>